{
    "asset" : {
        "generator" : "Khronos glTF Blender I/O v1.5.17",
        "version" : "2.0"
    },
    "scene" : 0,
    "scenes" : [
        {
            "name" : "Scene",
            "nodes" : [
                5,
                6,
                7,
                8,
                9,
                10
            ]
        }
    ],
    "nodes" : [
        {
            "name" : "Lattice",
            "rotation" : [
                -0.7071068286895752,
                0,
                0,
                0.7071068286895752
            ],
            "scale" : [
                1.867556095123291,
                1,
                1
            ],
            "translation" : [
                0.9810247421264648,
                -0.5321187973022461,
                0
            ]
        },
        {
            "children" : [
                0
            ],
            "name" : "Empty",
            "rotation" : [
                0.5,
                -0.5000000596046448,
                0.5,
                0.4999999701976776
            ],
            "translation" : [
                1.332283854484558,
                0,
                -0.9810246825218201
            ]
        },
        {
            "mesh" : 0,
            "name" : "Plane.001",
            "rotation" : [
                0,
                -0.7071068286895752,
                0,
                0.7071068286895752
            ],
            "scale" : [
                1.9967811107635498,
                1,
                1
            ]
        },
        {
            "children" : [
                1,
                2
            ],
            "name" : "Empty.001",
            "rotation" : [
                0,
                0.7071068286895752,
                0,
                0.7071068286895752
            ],
            "scale" : [
                -3.1698193550109863,
                -0.684931218624115,
                -3.1698193550109863
            ],
            "translation" : [
                -0.016293836757540703,
                0.0008795356843620539,
                3.1632871627807617
            ]
        },
        {
            "mesh" : 1,
            "name" : "Plane",
            "scale" : [
                -6.329435348510742,
                -0.684931218624115,
                -3.1698193550109863
            ],
            "translation" : [
                -0.016293836757540703,
                0.0008795356843620539,
                3.1632871627807617
            ]
        },
        {
            "children" : [
                3,
                4
            ],
            "name" : "Empty.002",
            "scale" : [
                -0.3154754638671875,
                -1.4600006341934204,
                -0.3154754638671875
            ],
            "translation" : [
                -0.0051403045654296875,
                0.0012841224670410156,
                0.9979394674301147
            ]
        },
        {
            "mesh" : 2,
            "name" : "Text",
            "rotation" : [
                0.5421556234359741,
                0,
                0,
                0.8402780890464783
            ],
            "scale" : [
                0.38758379220962524,
                0.38758379220962524,
                0.38758379220962524
            ],
            "translation" : [
                -0.8941321969032288,
                5.870516300201416,
                8.003148078918457
            ]
        },
        {
            "mesh" : 3,
            "name" : "Text.001",
            "rotation" : [
                0.5421556234359741,
                0,
                0,
                0.8402780890464783
            ],
            "scale" : [
                0.2733207643032074,
                0.2733207643032074,
                0.2733207643032074
            ],
            "translation" : [
                -1.467217206954956,
                5.636497974395752,
                8.26784610748291
            ]
        },
        {
            "mesh" : 4,
            "name" : "Text.002",
            "rotation" : [
                0.5421556234359741,
                0,
                0,
                0.8402780890464783
            ],
            "scale" : [
                0.2733207643032074,
                0.2733207643032074,
                0.2733207643032074
            ],
            "translation" : [
                0.40434759855270386,
                5.636497974395752,
                8.26784610748291
            ]
        },
        {
            "name" : "Light",
            "rotation" : [
                0.16907575726509094,
                0.7558803558349609,
                -0.27217137813568115,
                0.570947527885437
            ],
            "translation" : [
                4.076245307922363,
                5.903861999511719,
                -1.0054539442062378
            ]
        },
        {
            "name" : "Camera",
            "rotation" : [
                0.48678749799728394,
                0,
                0,
                0.87352055311203
            ],
            "translation" : [
                0,
                8.91830825805664,
                14.115789413452148
            ]
        }
    ],
    "animations" : [
        {
            "channels" : [
                {
                    "sampler" : 0,
                    "target" : {
                        "node" : 5,
                        "path" : "translation"
                    }
                },
                {
                    "sampler" : 1,
                    "target" : {
                        "node" : 5,
                        "path" : "rotation"
                    }
                },
                {
                    "sampler" : 2,
                    "target" : {
                        "node" : 5,
                        "path" : "scale"
                    }
                }
            ],
            "name" : "Empty.002Action",
            "samplers" : [
                {
                    "input" : 20,
                    "interpolation" : "LINEAR",
                    "output" : 21
                },
                {
                    "input" : 20,
                    "interpolation" : "LINEAR",
                    "output" : 22
                },
                {
                    "input" : 23,
                    "interpolation" : "STEP",
                    "output" : 24
                }
            ]
        },
        {
            "channels" : [
                {
                    "sampler" : 0,
                    "target" : {
                        "node" : 1,
                        "path" : "translation"
                    }
                }
            ],
            "name" : "EmptyAction",
            "samplers" : [
                {
                    "input" : 25,
                    "interpolation" : "LINEAR",
                    "output" : 26
                }
            ]
        },
        {
            "channels" : [
                {
                    "sampler" : 0,
                    "target" : {
                        "node" : 3,
                        "path" : "rotation"
                    }
                }
            ],
            "name" : "Empty.001Action",
            "samplers" : [
                {
                    "input" : 27,
                    "interpolation" : "LINEAR",
                    "output" : 28
                }
            ]
        }
    ],
    "meshes" : [
        {
            "name" : "Plane.001",
            "primitives" : [
                {
                    "attributes" : {
                        "POSITION" : 0,
                        "NORMAL" : 1,
                        "TEXCOORD_0" : 2
                    },
                    "indices" : 3
                }
            ]
        },
        {
            "name" : "Plane",
            "primitives" : [
                {
                    "attributes" : {
                        "POSITION" : 4,
                        "NORMAL" : 5,
                        "TEXCOORD_0" : 6
                    },
                    "indices" : 7
                }
            ]
        },
        {
            "name" : "Text",
            "primitives" : [
                {
                    "attributes" : {
                        "POSITION" : 8,
                        "NORMAL" : 9,
                        "TEXCOORD_0" : 10
                    },
                    "indices" : 11
                }
            ]
        },
        {
            "name" : "Text.002",
            "primitives" : [
                {
                    "attributes" : {
                        "POSITION" : 12,
                        "NORMAL" : 13,
                        "TEXCOORD_0" : 14
                    },
                    "indices" : 15
                }
            ]
        },
        {
            "name" : "Text.003",
            "primitives" : [
                {
                    "attributes" : {
                        "POSITION" : 16,
                        "NORMAL" : 17,
                        "TEXCOORD_0" : 18
                    },
                    "indices" : 19
                }
            ]
        }
    ],
    "accessors" : [
        {
            "bufferView" : 0,
            "componentType" : 5126,
            "count" : 82,
            "max" : [
                1,
                0,
                0
            ],
            "min" : [
                -1,
                0,
                -1
            ],
            "type" : "VEC3"
        },
        {
            "bufferView" : 1,
            "componentType" : 5126,
            "count" : 82,
            "type" : "VEC3"
        },
        {
            "bufferView" : 2,
            "componentType" : 5126,
            "count" : 82,
            "type" : "VEC2"
        },
        {
            "bufferView" : 3,
            "componentType" : 5123,
            "count" : 243,
            "type" : "SCALAR"
        },
        {
            "bufferView" : 4,
            "componentType" : 5126,
            "count" : 34,
            "max" : [
                1,
                0.003161295549944043,
                2
            ],
            "min" : [
                -1,
                0,
                0
            ],
            "type" : "VEC3"
        },
        {
            "bufferView" : 5,
            "componentType" : 5126,
            "count" : 34,
            "type" : "VEC3"
        },
        {
            "bufferView" : 6,
            "componentType" : 5126,
            "count" : 34,
            "type" : "VEC2"
        },
        {
            "bufferView" : 7,
            "componentType" : 5123,
            "count" : 60,
            "type" : "SCALAR"
        },
        {
            "bufferView" : 8,
            "componentType" : 5126,
            "count" : 2719,
            "max" : [
                4.57354211807251,
                0,
                0.040034811943769455
            ],
            "min" : [
                0.038200486451387405,
                0,
                -0.6492602229118347
            ],
            "type" : "VEC3"
        },
        {
            "bufferView" : 9,
            "componentType" : 5126,
            "count" : 2719,
            "type" : "VEC3"
        },
        {
            "bufferView" : 10,
            "componentType" : 5126,
            "count" : 2719,
            "type" : "VEC2"
        },
        {
            "bufferView" : 11,
            "componentType" : 5123,
            "count" : 6072,
            "type" : "SCALAR"
        },
        {
            "bufferView" : 12,
            "componentType" : 5126,
            "count" : 3720,
            "max" : [
                4.1131415367126465,
                0,
                0.170583114027977
            ],
            "min" : [
                0.05308964103460312,
                0,
                -0.6318537592887878
            ],
            "type" : "VEC3"
        },
        {
            "bufferView" : 13,
            "componentType" : 5126,
            "count" : 3720,
            "type" : "VEC3"
        },
        {
            "bufferView" : 14,
            "componentType" : 5126,
            "count" : 3720,
            "type" : "VEC2"
        },
        {
            "bufferView" : 15,
            "componentType" : 5123,
            "count" : 8145,
            "type" : "SCALAR"
        },
        {
            "bufferView" : 16,
            "componentType" : 5126,
            "count" : 3894,
            "max" : [
                4.652741432189941,
                0,
                0.170583114027977
            ],
            "min" : [
                0.052219320088624954,
                0,
                -0.6318537592887878
            ],
            "type" : "VEC3"
        },
        {
            "bufferView" : 17,
            "componentType" : 5126,
            "count" : 3894,
            "type" : "VEC3"
        },
        {
            "bufferView" : 18,
            "componentType" : 5126,
            "count" : 3894,
            "type" : "VEC2"
        },
        {
            "bufferView" : 19,
            "componentType" : 5123,
            "count" : 8619,
            "type" : "SCALAR"
        },
        {
            "bufferView" : 20,
            "componentType" : 5126,
            "count" : 15,
            "max" : [
                4.166666666666667
            ],
            "min" : [
                3.5833333333333335
            ],
            "type" : "SCALAR"
        },
        {
            "bufferView" : 21,
            "componentType" : 5126,
            "count" : 15,
            "type" : "VEC3"
        },
        {
            "bufferView" : 22,
            "componentType" : 5126,
            "count" : 15,
            "type" : "VEC4"
        },
        {
            "bufferView" : 23,
            "componentType" : 5126,
            "count" : 1,
            "max" : [
                4.166666666666667
            ],
            "min" : [
                4.166666666666667
            ],
            "type" : "SCALAR"
        },
        {
            "bufferView" : 24,
            "componentType" : 5126,
            "count" : 1,
            "type" : "VEC3"
        },
        {
            "bufferView" : 25,
            "componentType" : 5126,
            "count" : 26,
            "max" : [
                3.125
            ],
            "min" : [
                2.0833333333333335
            ],
            "type" : "SCALAR"
        },
        {
            "bufferView" : 26,
            "componentType" : 5126,
            "count" : 26,
            "type" : "VEC3"
        },
        {
            "bufferView" : 27,
            "componentType" : 5126,
            "count" : 22,
            "max" : [
                3.5416666666666665
            ],
            "min" : [
                2.6666666666666665
            ],
            "type" : "SCALAR"
        },
        {
            "bufferView" : 28,
            "componentType" : 5126,
            "count" : 22,
            "type" : "VEC4"
        }
    ],
    "bufferViews" : [
        {
            "buffer" : 0,
            "byteLength" : 984,
            "byteOffset" : 0
        },
        {
            "buffer" : 0,
            "byteLength" : 984,
            "byteOffset" : 984
        },
        {
            "buffer" : 0,
            "byteLength" : 656,
            "byteOffset" : 1968
        },
        {
            "buffer" : 0,
            "byteLength" : 486,
            "byteOffset" : 2624
        },
        {
            "buffer" : 0,
            "byteLength" : 408,
            "byteOffset" : 3112
        },
        {
            "buffer" : 0,
            "byteLength" : 408,
            "byteOffset" : 3520
        },
        {
            "buffer" : 0,
            "byteLength" : 272,
            "byteOffset" : 3928
        },
        {
            "buffer" : 0,
            "byteLength" : 120,
            "byteOffset" : 4200
        },
        {
            "buffer" : 0,
            "byteLength" : 32628,
            "byteOffset" : 4320
        },
        {
            "buffer" : 0,
            "byteLength" : 32628,
            "byteOffset" : 36948
        },
        {
            "buffer" : 0,
            "byteLength" : 21752,
            "byteOffset" : 69576
        },
        {
            "buffer" : 0,
            "byteLength" : 12144,
            "byteOffset" : 91328
        },
        {
            "buffer" : 0,
            "byteLength" : 44640,
            "byteOffset" : 103472
        },
        {
            "buffer" : 0,
            "byteLength" : 44640,
            "byteOffset" : 148112
        },
        {
            "buffer" : 0,
            "byteLength" : 29760,
            "byteOffset" : 192752
        },
        {
            "buffer" : 0,
            "byteLength" : 16290,
            "byteOffset" : 222512
        },
        {
            "buffer" : 0,
            "byteLength" : 46728,
            "byteOffset" : 238804
        },
        {
            "buffer" : 0,
            "byteLength" : 46728,
            "byteOffset" : 285532
        },
        {
            "buffer" : 0,
            "byteLength" : 31152,
            "byteOffset" : 332260
        },
        {
            "buffer" : 0,
            "byteLength" : 17238,
            "byteOffset" : 363412
        },
        {
            "buffer" : 0,
            "byteLength" : 60,
            "byteOffset" : 380652
        },
        {
            "buffer" : 0,
            "byteLength" : 180,
            "byteOffset" : 380712
        },
        {
            "buffer" : 0,
            "byteLength" : 240,
            "byteOffset" : 380892
        },
        {
            "buffer" : 0,
            "byteLength" : 4,
            "byteOffset" : 381132
        },
        {
            "buffer" : 0,
            "byteLength" : 12,
            "byteOffset" : 381136
        },
        {
            "buffer" : 0,
            "byteLength" : 104,
            "byteOffset" : 381148
        },
        {
            "buffer" : 0,
            "byteLength" : 312,
            "byteOffset" : 381252
        },
        {
            "buffer" : 0,
            "byteLength" : 88,
            "byteOffset" : 381564
        },
        {
            "buffer" : 0,
            "byteLength" : 352,
            "byteOffset" : 381652
        }
    ],
    "buffers" : [
        {
            "byteLength" : 382004,
            "uri" : "data:application/octet-stream;base64,"
        }
    ]
}
